<?xml version="1.0" standalone="no"?>
<!-- Generator: Adobe Fireworks 10, Export SVG Extension by Aaron Beall (http://fireworks.abeall.com) . Version: 0.6.1  -->
<!DOCTYPE svg PUBLIC "-//W3C//DTD SVG 1.1//EN" "http://www.w3.org/Graphics/SVG/1.1/DTD/svg11.dtd">
<svg id="Untitled-page%201" viewBox="0 0 800 525" style="background-color:#ffffff00" version="1.1"
	xmlns="http://www.w3.org/2000/svg" xmlns:xlink="http://www.w3.org/1999/xlink" xml:space="preserve"
	x="0px" y="0px" width="800px" height="525px"
>
	<g id="Calque%201">
		<g>
			<path d="M 507.5933 85.978 L 635.3044 159.8198 L 635.2112 307.3418 L 507.4067 381.0221 L 379.6955 307.1802 L 379.7888 159.6582 L 507.5933 85.978 Z" fill="#f0db4e"/>
		</g>
		<g>
			<path d="M 494.8975 289.8443 L 508.9279 281.3575 C 511.6345 286.1545 514.0969 290.2128 520.0031 290.2128 C 525.6643 290.2128 529.2334 287.9994 529.2334 279.3894 L 529.2334 220.8375 L 546.4625 220.8375 L 546.4625 279.6343 C 546.4625 297.4707 536.0025 305.5892 520.7416 305.5892 C 506.9587 305.5892 498.9587 298.4546 494.8975 289.8443 L 494.8975 289.8443 Z" fill="#2d2525"/>
			<path d="M 555.817 288.8441 L 569.8457 280.7255 C 573.5388 286.7531 578.338 291.1815 586.8293 291.1815 C 593.9681 291.1815 598.5205 287.6137 598.5205 282.6936 C 598.5205 276.7893 593.8441 274.698 585.9679 271.2546 L 581.6613 269.4084 C 569.2308 264.1199 560.985 257.4777 560.985 243.4547 C 560.985 230.5391 570.8304 220.6981 586.2145 220.6981 C 597.1675 220.6981 605.0435 224.5116 610.7042 234.4753 L 597.2897 243.0855 C 594.3358 237.7968 591.137 235.7056 586.2145 235.7056 C 581.1686 235.7056 577.9686 238.9039 577.9686 243.0855 C 577.9686 248.2521 581.1686 250.3433 588.5519 253.5417 L 592.8586 255.3867 C 607.5043 261.6603 615.75 268.0561 615.75 282.4471 C 615.75 297.9468 603.5664 306.434 587.1987 306.434 C 571.1998 306.434 560.8621 298.8079 555.817 288.8441 L 555.817 288.8441 Z" fill="#2d2525"/>
		</g>
		<g>
			<path d="M 118.7588 262.4151 L 155.2029 262.4151 L 155.2029 248.6792 L 118.7588 248.6792 L 118.7588 230.6138 L 160.3927 230.6138 L 160.3927 216.8779 L 102.6126 216.8779 L 102.6126 298.8679 L 118.7588 298.8679 L 118.7588 262.4151 L 118.7588 262.4151 Z" fill="#2c2525"/>
			<path d="M 174.6873 298.8679 L 190.8335 298.8679 L 190.8335 265.7537 C 190.8335 258.7005 193.1401 250.566 205.711 250.566 C 207.2103 250.566 208.9402 250.566 210.3242 250.8104 L 210.3242 236.5794 C 209.2862 236.4796 208.2482 236.3773 207.2103 236.3773 C 197.4073 236.3773 193.7167 241.5747 190.3722 246.9695 L 190.1415 246.9695 L 190.1415 238.7924 L 174.6873 238.7924 L 174.6873 298.8679 L 174.6873 298.8679 Z" fill="#2c2525"/>
			<path d="M 272.5182 254.6903 C 272.5182 239.0195 256.372 236.1986 247.5731 236.1986 C 234.7824 236.1986 221.7381 239.0195 219.8928 258.3177 L 235.4865 258.3177 C 235.9558 254.8036 237.364 249.9345 245.5782 249.9345 C 249.8026 249.9345 256.372 250.2695 256.372 256.9574 C 256.372 260.358 253.2057 261.3782 250.624 261.7183 L 235.8385 263.872 C 225.5439 265.3457 217.9322 271.3535 217.9322 283.1424 C 217.9322 296.2169 227.3892 301.434 236.6599 301.434 C 247.8077 301.434 253.0883 296.3328 256.8434 292.507 C 257.197 295.3847 257.4328 296.2916 258.3757 298.8582 L 276.0934 298.8582 L 276.0934 296.745 C 274.1328 296.0648 272.5182 294.4779 272.5182 287.3365 L 272.5182 254.6903 L 272.5182 254.6903 ZM 256.372 277.4746 C 256.372 285.2532 248.9813 289.8405 241.7057 289.8405 C 238.5374 289.8405 234.0783 288.1203 234.0783 282.5009 C 234.0783 275.8493 239.1242 274.3585 245.2262 273.3264 C 252.0322 272.2942 254.7312 271.2621 256.372 270.0006 L 256.372 277.4746 L 256.372 277.4746 Z" fill="#2c2525"/>
			<path d="M 344.5929 256.8007 C 344.5929 243.2989 335.2512 236.1986 323.4582 236.1986 C 312.2542 236.1986 307.817 243.1825 305.6917 246.9077 L 305.461 246.9077 L 305.461 238.7833 L 290.0069 238.7833 L 290.0069 298.8679 L 306.153 298.8679 L 306.153 264.4408 C 306.153 254.7431 311.4777 249.9345 318.3554 249.9345 C 328.2282 249.9345 328.4467 257.4866 328.4467 261.9449 L 328.4467 298.8679 L 344.5929 298.8679 L 344.5929 256.8007 L 344.5929 256.8007 Z" fill="#2c2525"/>
			<path d="M 400.3001 276.9782 C 400.3001 279.8674 397.6906 287.7259 389.9707 287.7259 C 378.4452 287.7259 378.2277 274.4358 378.2277 267.733 C 378.2277 260.1056 380.7285 249.9345 390.2968 249.9345 L 391.058 249.9345 C 397.5818 249.9345 399.7564 255.9452 400.4061 259.8745 L 416.7829 259.8745 C 415.2836 240.6215 399.4303 236.1986 390.2968 236.1986 C 370.4921 236.1986 362.0816 250.5136 362.0816 270.391 C 362.0816 283.3344 367.2401 301.4617 389.3183 301.4617 C 411.1318 301.4617 416.0909 283.3344 416.6676 276.9782 L 400.3001 276.9782 L 400.3001 276.9782 Z" fill="#2c2525"/>
			<path d="M 467.1046 280.8435 C 465.8529 285.3527 461.3013 287.7259 456.8636 287.7259 C 444.0053 287.7259 443.095 277.0464 442.6485 272.3019 L 483.9373 272.3019 L 483.9373 269.7306 C 483.9373 242.1712 467.6736 236.1986 455.7256 236.1986 C 429.4159 236.1986 426.9489 260.388 426.9489 267.2621 C 426.9489 292.6316 439.8449 301.4617 456.8636 301.4617 C 467.2184 301.4617 479.1174 296.3108 483.2665 280.8435 L 467.1046 280.8435 L 467.1046 280.8435 ZM 443.095 262.9434 C 444.0053 254.8125 447.9879 249.9345 455.4981 249.9345 C 460.6186 249.9345 466.877 252.954 467.7912 262.9434 L 443.095 262.9434 L 443.095 262.9434 Z" fill="#2c2525"/>
		</g>
	</g>
</svg>