<?xml version="1.0" encoding="UTF-8" standalone="no"?>
<!-- Created with Inkscape (http://www.inkscape.org/) -->

<svg
   xmlns:dc="http://purl.org/dc/elements/1.1/"
   xmlns:cc="http://creativecommons.org/ns#"
   xmlns:rdf="http://www.w3.org/1999/02/22-rdf-syntax-ns#"
   xmlns:svg="http://www.w3.org/2000/svg"
   xmlns="http://www.w3.org/2000/svg"
   xmlns:sodipodi="http://sodipodi.sourceforge.net/DTD/sodipodi-0.dtd"
   xmlns:inkscape="http://www.inkscape.org/namespaces/inkscape"
   id="svg10737"
   height="1797"
   width="1796"
   version="1.0"
   inkscape:version="0.48.3.1 r9886"
   sodipodi:docname="france.js.png">
  <defs
     id="defs3569" />
  <sodipodi:namedview
     pagecolor="#ffffff"
     bordercolor="#666666"
     borderopacity="1"
     objecttolerance="10"
     gridtolerance="10"
     guidetolerance="10"
     inkscape:pageopacity="0"
     inkscape:pageshadow="2"
     inkscape:window-width="960"
     inkscape:window-height="1020"
     id="namedview3567"
     showgrid="false"
     inkscape:zoom="0.43942712"
     inkscape:cx="898"
     inkscape:cy="898.5"
     inkscape:window-x="958"
     inkscape:window-y="24"
     inkscape:window-maximized="0"
     inkscape:current-layer="svg10737" />
  <metadata
     id="metadata10742">
    <rdf:RDF>
      <cc:Work
         rdf:about="">
        <dc:format>image/svg+xml</dc:format>
        <dc:type
           rdf:resource="http://purl.org/dc/dcmitype/StillImage" />
        <dc:title></dc:title>
        <dc:date>09/2008</dc:date>
        <dc:creator>
          <cc:Agent>
            <dc:title>Eric Gaba (user Sting) for Wikipedia</dc:title>
          </cc:Agent>
        </dc:creator>
        <dc:source>NGDC World Data Base II</dc:source>
        <dc:description>Mercator projection, WGS84 datum
Scale: 1:2,000,000</dc:description>
        <cc:license
           rdf:resource="http://creativecommons.org/licenses/by-sa/3.0/" />
      </cc:Work>
      <cc:License
         rdf:about="http://creativecommons.org/licenses/by-sa/3.0/">
        <cc:permits
           rdf:resource="http://creativecommons.org/ns#Reproduction" />
        <cc:permits
           rdf:resource="http://creativecommons.org/ns#Distribution" />
        <cc:requires
           rdf:resource="http://creativecommons.org/ns#Notice" />
        <cc:requires
           rdf:resource="http://creativecommons.org/ns#Attribution" />
        <cc:permits
           rdf:resource="http://creativecommons.org/ns#DerivativeWorks" />
        <cc:requires
           rdf:resource="http://creativecommons.org/ns#ShareAlike" />
      </cc:License>
    </rdf:RDF>
  </metadata>
  <path
     style="fill:#f7df1e;fill-opacity:1"
     d="m 928.70051,1581.1726 c -2.5465,-4.1203 -17.3631,-9.0696 -26.996,-9.0177 -5.8023,0.031 -11.5688,1.752 -15.083,4.5007 -7.3295,5.7333 -10.70999,5.6911 -12.56609,-0.157 -1.65634,-5.2186 -13.73243,-13.4753 -19.72814,-13.4886 -5.46314,-0.011 -7.00701,-3.6376 -3.76186,-8.8339 4.13971,-6.6287 -0.0612,-10.147 -16.45993,-13.785 -10.84489,-2.4059 -15.08047,-2.5168 -18.34151,-0.4803 -3.42191,2.137 -4.24021,1.9957 -4.24021,-0.7323 0,-4.63 -8.4079,-9.6561 -19.34336,-11.563 -5.00652,-0.873 -11.15089,-3.433 -13.65414,-5.6889 -2.50326,-2.2558 -7.62357,-4.7798 -11.37846,-5.6089 -3.75488,-0.8291 -13.28823,-3.5689 -21.18519,-6.0884 -13.71113,-4.3746 -14.55711,-4.4009 -18.77445,-0.5843 -2.71014,2.4527 -4.41631,6.9651 -4.41631,11.6804 0,9.6299 -3.59951,11.1625 -19.46321,8.2871 -7.25893,-1.3157 -13.62271,-1.3789 -15.80642,-0.1568 -2.3167,1.2965 -4.80635,1.0905 -6.7981,-0.5625 -2.11922,-1.7588 -8.26005,-2.104 -18.85626,-1.0598 -15.34359,1.5119 -15.83304,1.3965 -20.78688,-4.9013 -5.40265,-6.8684 -24.29679,-15.4028 -28.43616,-12.8445 -1.36368,0.8428 -7.37328,2.1602 -13.35462,2.9275 -10.27358,1.318 -11.3442,0.9328 -19.35347,-6.9633 -4.66307,-4.5972 -9.79873,-10.0492 -11.41263,-12.1155 -1.85282,-2.3722 -6.2754,-3.7569 -11.99928,-3.7569 -10.85916,0 -42.5032,-12.7659 -46.16049,-18.6222 -3.71306,-5.9455 -9.84998,-5.1177 -11.52462,1.5545 -1.44115,5.742 -4.56558,7.4018 -6.881,3.6553 -0.69138,-1.1186 0.27224,-5.694 2.14138,-10.1675 7.20743,-17.2498 2.72885,-25.3474 -14.019,-25.3474 -5.43997,0 -9.89086,-0.7418 -9.89086,-1.6483 0,-0.9066 -3.31575,-3.363 -7.36834,-5.4587 -6.86214,-3.5485 -7.06782,-3.9825 -2.99402,-6.3166 9.67679,-5.5443 23.91922,-20.3596 26.10272,-27.1527 6.11018,-19.0093 23.96238,-113.8456 26.4181,-140.3411 1.91126,-20.6208 5.05506,-26.2668 15.74225,-28.2717 9.83655,-1.8453 10.55396,-6.6711 2.31298,-15.5586 -6.30309,-6.7976 -10.03356,-7.7152 -14.24475,-3.5041 -2.00285,2.0029 -2.73083,2.0309 -2.73083,0.105 0,-4.3649 11.18928,-103.545 12.58773,-111.5758 l 1.30113,-7.4719 7.02303,5.1962 c 20.8395,15.4187 25.40949,22.6429 34.80133,55.0134 2.13929,7.3733 6.39554,15.912 9.45837,18.9748 3.06282,3.0628 6.16941,8.5721 6.90357,12.2428 1.52647,7.6323 5.2913,11.1807 5.31233,5.0068 0.007,-2.2642 1.61483,-7.1868 3.57135,-10.9392 3.39317,-6.5076 3.31946,-6.9802 -1.59726,-10.2406 -12.35256,-8.1913 -13.43856,-10.1559 -16.98561,-30.7264 -1.94242,-11.2647 -5.35677,-24.5775 -7.58745,-29.584 -4.39126,-9.8556 -21.58733,-27.1365 -40.58429,-40.7845 -11.03078,-7.9248 -13.94562,-12.1943 -10.60561,-15.5343 0.72763,-0.7276 4.96676,1.1498 9.42034,4.1721 14.16435,9.6122 19.14347,6.4458 7.46226,-4.7456 -6.65979,-6.3804 -8.80344,-13.3019 -4.87223,-15.7315 1.07517,-0.6645 2.62796,-6.9353 3.45067,-13.9352 1.65541,-14.085 -2.28823,-25.92176 -10.5686,-31.7216 -4.5149,-3.16237 -4.49626,-3.28815 1.55166,-10.47569 7.35464,-8.74051 7.07403,-16.55892 -0.63351,-17.64943 -2.96051,-0.41889 -6.44496,0.3006 -7.74317,1.59881 -1.63013,1.63012 -4.10822,0.98562 -8.00936,-2.08301 -3.10691,-2.44398 -7.9532,-4.44353 -10.76952,-4.44353 -2.9508,0 -6.70021,-2.41076 -8.84832,-5.68923 -2.05026,-3.12907 -5.78826,-5.68922 -8.30673,-5.68922 -8.4188,0 -31.72712,-18.04211 -31.72712,-24.5588 0,-4.03147 -6.82896,-14.00205 -20.85356,-30.447 -6.05336,-7.09806 -11.00171,-14.26649 -10.99637,-15.92984 0.005,-1.66337 3.07317,-7.63257 6.81734,-13.2649 10.24265,-15.40795 8.32754,-23.38959 -7.01136,-29.22144 -5.38554,-2.04757 -5.75738,-3.03754 -4.54722,-12.10576 1.13919,-8.53618 2.12161,-9.96914 7.24227,-10.56371 3.25838,-0.37831 11.8343,1.92583 19.05761,5.12031 12.99631,5.74759 21.72461,7.40407 21.61105,4.10141 -0.0323,-0.93873 -5.28088,-5.25061 -11.6636,-9.582 -9.40294,-6.38095 -14.25116,-8.0437 -25.5514,-8.76325 -11.94457,-0.76058 -14.56758,-0.20186 -18.27309,3.89275 -5.69942,6.29779 -9.48933,6.0318 -19.3362,-1.35704 -13.1406,-9.86039 -14.98592,-14.34336 -5.90402,-14.34336 6.64786,0 7.68282,-5.42595 1.70676,-8.94804 -3.47336,-2.04709 -3.54609,-2.63891 -0.56892,-4.62962 1.87745,-1.25536 5.26609,-2.29817 7.53031,-2.31733 7.01422,-0.0594 1.87403,-4.33128 -7.04122,-5.85178 -4.64971,-0.79303 -11.578,-2.50066 -15.39625,-3.79476 -5.43289,-1.84135 -8.50063,-1.54703 -14.11005,1.3537 -11.05911,5.7189 -16.27054,4.63428 -7.17721,-1.49372 4.24423,-2.86018 8.08066,-7.08973 8.52537,-9.39899 1.53198,-7.95483 -9.62689,-10.63601 -20.54956,-4.9375 -5.61051,2.92709 -6.39243,2.78424 -9.42048,-1.7208 l -3.30213,-4.91281 -4.96776,6.25815 c -5.89699,7.42876 -7.04469,7.58606 -14.03722,1.92384 -5.20959,-4.21847 -5.2414,-4.45723 -1.19048,-8.93345 4.89182,-5.4054 4.20911,-12.53534 -1.30192,-13.59668 -2.58103,-0.49705 -4.36451,1.20405 -5.34087,5.09418 -1.65949,6.61193 -1.90412,6.71987 -7.9261,3.49699 -3.6663,-1.96215 -3.93367,-3.05612 -1.64331,-6.72357 1.5045,-2.40907 2.10133,-5.01426 1.3263,-5.78929 -1.89997,-1.89998 -14.83598,4.94061 -16.0114,8.46684 -0.59323,1.7797 -2.85493,0.60251 -6.172,-3.21246 -3.1984,-3.67847 -8.66516,-6.60093 -14.04931,-7.51057 -4.84751,-0.819 -9.37076,-2.39048 -10.05166,-3.49221 -0.6809,-1.10173 -4.01447,-1.4545 -7.40792,-0.78397 -4.94549,0.9772 -7.72624,-0.39242 -14.01232,-6.90162 -7.60684,-7.87683 -13.77665,-10.49453 -13.77665,-5.84507 0,4.33988 -8.95596,2.25077 -11.60991,-2.70818 l -2.6673,-4.98388 -4.23984,5.23598 c -2.33192,2.87979 -4.23985,7.75073 -4.23985,10.82427 0,4.68563 -0.95569,5.47197 -5.91675,4.86818 -4.53066,-0.55137 -6.59863,-2.71442 -8.82749,-9.23325 -5.91248,-17.29247 -13.09039,-23.61686 -31.90741,-28.11337 -6.02298,-1.43924 -4.95086,-1.97521 9.10276,-4.55056 8.76141,-1.60553 19.25803,-2.98209 23.32583,-3.05901 6.70547,-0.12676 7.39599,-0.79121 7.39599,-7.11652 0,-3.83717 -1.0162,-8.87546 -2.25822,-11.19621 -2.65127,-4.95393 -16.60529,-10.08927 -22.92471,-8.43669 -2.81026,0.73489 -4.40104,-0.006 -4.40104,-2.0496 0,-2.48874 4.17515,-3.20824 18.77444,-3.23533 21.98173,-0.0407 28.23034,-2.40415 17.79018,-6.72862 -3.83936,-1.5903 -6.98065,-4.41434 -6.98065,-6.27562 0,-2.51874 -1.60035,-3.02121 -6.25815,-1.96486 l -6.25815,1.4193 5.44269,-4.64302 c 2.99347,-2.55366 4.83046,-5.25527 4.08219,-6.00354 -0.74828,-0.74827 -10.87794,1.33225 -22.51036,4.6234 -30.64529,8.67041 -30.03044,8.85078 -28.09652,-8.24287 1.71321,-15.14271 3.49548,-17.57333 12.92615,-17.62829 3.28873,-0.0182 7.31647,-1.64578 8.95053,-3.6147 5.55668,-6.69538 19.62829,-12.37917 26.99842,-10.90513 4.57565,0.91512 8.8688,0.12903 12.58147,-2.30355 3.09966,-2.03096 8.02711,-3.69267 10.94989,-3.69267 2.92279,0 6.50946,-1.19531 7.97038,-2.65623 2.02451,-2.0245 2.99738,-1.76719 4.09069,1.08193 1.10861,2.88899 12.71327,10.67706 15.90943,10.67706 0.31108,0 1.68363,-3.20718 3.0501,-7.12707 2.6499,-7.60149 2.73523,-7.61221 23.2434,-2.92459 6.58321,1.50476 9.39165,-3.1219 9.78429,-16.11878 0.19766,-6.54308 0.58662,-6.79742 9.35075,-6.11405 5.02948,0.39217 11.97842,-0.36441 15.4421,-1.6813 5.07539,-1.92965 6.556,-1.72095 7.62906,1.0754 1.19174,3.10563 1.89125,3.10297 6.66581,-0.0255 7.30812,-4.78848 7.85691,-4.49781 6.29098,3.33186 -1.42818,7.14089 2.17773,9.66811 4.63986,3.25189 1.19378,-3.11093 2.25969,-2.94305 8.20839,1.2928 3.76006,2.67744 6.83647,6.17568 6.83647,7.77392 0,1.59822 2.13266,4.83589 4.73924,7.19482 2.60659,2.35894 6.13869,7.38193 7.84913,11.16224 1.71043,3.78028 5.68185,9.91174 8.82539,13.62547 l 5.71551,6.7522 9.76119,-7.22805 c 16.89372,-12.50956 29.4901,-19.56393 31.03227,-17.37904 2.42144,3.43061 13.58764,9.96484 17.02869,9.96484 1.75269,0 5.75613,-2.02113 8.89656,-4.49137 l 5.70987,-4.49139 3.931,10.29317 c 2.16204,5.66126 5.10704,9.90631 6.54441,9.43344 4.10696,-1.3511 4.40894,-10.17331 0.53743,-15.70069 -3.19145,-4.55643 -3.17282,-5.41205 0.19912,-9.13792 5.35463,-5.91679 9.42989,-5.06382 10.25963,2.14739 0.66732,5.7998 1.55343,6.30275 12.09852,6.86698 14.36707,0.76878 44.88838,-4.33673 45.99104,-7.69322 0.45769,-1.39315 -2.35795,-3.85438 -6.25696,-5.46939 -3.89903,-1.61504 -8.51031,-5.1054 -10.2473,-7.75637 -4.36316,-6.65904 -5.15735,-43.00024 -1.04793,-47.95178 2.61117,-3.14628 2.32227,-3.83813 -2.08387,-4.99038 -4.77813,-1.24949 -5.06726,-2.37871 -4.38583,-17.12887 0.58458,-12.65393 0.002,-16.19752 -2.9254,-17.83657 -2.0102,-1.12496 -4.99775,-5.39784 -6.639,-9.49529 -1.64128,-4.09747 -5.93207,-10.01008 -9.53512,-13.13915 -7.62545,-6.62233 -11.40317,-18.9842 -10.92338,-35.74466 0.27793,-9.70998 -0.50534,-12.37734 -4.33736,-14.77048 -6.28695,-3.92627 -5.99532,-7.24304 0.33876,-3.85313 6.80846,3.64377 26.62401,8.79432 33.9617,8.82745 3.28871,0.0159 7.25433,-1.50908 8.81247,-3.38652 1.55814,-1.87745 6.20804,-3.41354 10.33314,-3.41354 14.84037,0 18.00804,4.21337 11.0972,14.76063 -4.15362,6.33923 -2.93781,12.07681 5.0614,23.88544 2.95237,4.35836 5.36793,10.19582 5.36793,12.97214 0,7.95973 6.94875,10.47562 13.07659,4.73455 5.03911,-4.72106 5.3945,-4.73694 25.03259,-1.11887 10.95649,2.01861 25.55325,4.31089 32.43721,5.09398 6.88397,0.78306 18.89931,3.4803 26.70077,5.99385 13.31681,4.29051 14.92397,4.3551 26.27377,1.05562 6.64912,-1.93295 16.65107,-7.04931 22.22656,-11.36971 6.27435,-4.86192 15.77394,-9.3027 24.92927,-11.6537 24.81613,-6.3725 28.35299,-13.05809 5.79361,-10.95146 -9.7448,0.90998 -17.07429,0.38293 -21.77976,-1.56613 -8.0889,-3.35054 -8.00661,-6.13836 0.72428,-24.53531 4.56381,-9.61645 7.31104,-11.93631 26.8052,-22.63538 15.87555,-8.71303 29.03284,-13.81691 48.8955,-18.96712 37.83244,-9.80964 57.34999,-22.12418 70.42449,-44.43411 5.64435,-9.63137 6.37402,-10.09202 13.78388,-8.70192 6.72726,1.26204 7.82405,0.84988 7.82405,-2.94016 0,-2.42438 -2.56015,-6.8131 -5.68923,-9.75271 -5.32131,-4.99911 -7.48374,-13.37675 -4.27977,-16.5807 0.77519,-0.7752 1.66519,-21.02571 1.97777,-45.00114 l 0.56834,-43.59169 6.55605,-5.48728 c 3.60584,-3.018 10.20777,-7.44026 14.67095,-9.82723 10.27123,-5.49325 79.85765,-23.52398 81.81945,-21.2005 2.861,3.38846 6.7824,20.60931 6.7824,29.7851 0,5.12487 1.2801,10.34577 2.8446,11.60202 1.5646,1.25624 8.2551,6.92895 14.868,12.60601 12.1853,10.46105 20.1011,12.96941 22.359,7.08524 1.4742,-3.84153 18.4606,-11.07899 21.53819,-9.17688 3.7829,2.33795 8.8659,14.12431 11.4382,26.52293 1.3763,6.6336 4.0275,14.46788 5.8915,17.40951 2.9928,4.72287 4.5397,5.17588 13.2261,3.87327 6.0012,-0.89993 10.4117,-0.5452 11.3108,0.90974 0.8107,1.31168 3.4256,2.38487 5.811,2.38487 5.4589,0 8.7089,5.99005 10.5541,19.45228 1.5516,11.31995 6.4624,15.59891 10.9145,9.51025 2.0916,-2.86046 5.7461,-3.44012 17.1223,-2.71589 12.6402,0.80469 15.3665,1.83637 21.6302,8.18521 6.6853,6.77609 7.0122,7.84504 4.8622,15.90008 -1.9245,7.21005 -1.6388,9.3717 1.7305,13.09475 3.7772,4.17378 3.7943,4.82715 0.2678,10.20924 -2.0721,3.16255 -3.4326,8.06036 -3.0231,10.88403 0.6472,4.46383 2.9664,5.54005 17.7678,8.24535 13.6174,2.48889 18.9888,2.56114 26.8466,0.36108 12.1926,-3.41372 20.9872,-10.11765 20.9872,-15.99815 0,-5.88277 6.5277,-15.6846 10.4454,-15.6846 2.313,0 2.6781,1.86854 1.4451,7.396 -1.7305,7.75713 -1.5671,16.42407 0.7455,39.55315 l 1.395,13.95165 11.2964,1.08543 c 8.1098,0.77925 13.05,2.76544 17.5128,7.04106 3.4189,3.27558 9.5154,7.1057 13.5477,8.51137 4.0323,1.40565 7.3314,3.96535 7.3314,5.68821 0,1.72288 3.1529,4.76288 7.0064,6.75561 4.0525,2.09566 8.4299,7.03029 10.3831,11.70494 3.2517,7.78239 3.7125,8.02816 12.4364,6.63314 4.9828,-0.79679 11.0987,-2.7095 13.5909,-4.25051 3.8771,-2.39733 6.9018,-1.5626 20.9508,5.78191 18.3597,9.59809 21.5325,10.07558 31.7705,4.78127 6.5183,-3.37073 8.0893,-3.38768 17.5236,-0.18911 5.6999,1.9325 13.0141,4.08871 16.2539,4.79158 4.1855,0.90805 7.1464,4.09151 10.2297,10.99855 4.2193,9.45176 16.4213,29.58147 21.4112,35.32213 3.5104,4.03844 13.8102,3.52502 17.0077,-0.84781 3.6098,-4.9367 11.1643,-2.39303 14.4753,4.874 2.3586,5.17647 3.8147,5.64549 17.5261,5.64549 9.2059,0 17.6383,-1.38824 21.9379,-3.61163 6.8705,-3.55288 7.1187,-3.48456 15.2479,4.19635 9.718,9.182 17.2651,12.223 34.7858,14.01654 9.8256,1.00581 34.8899,8.28727 40.0904,11.64667 2.6688,1.72397 -12.8609,25.63724 -24.9363,38.3979 -12.2743,12.97089 -15.3084,17.74442 -17.3575,27.30828 -1.3658,6.37439 -3.715,17.22213 -5.2206,24.10609 -1.5055,6.88397 -5.0322,17.6366 -7.837,23.89475 -13.2428,29.54722 -14.9887,37.5604 -10.1522,46.59742 1.5541,2.90392 1.2975,6.89129 -0.8327,12.93561 -1.6937,4.80572 -4.3714,15.97526 -5.9505,24.82119 -2.4638,13.80244 -2.3837,17.01365 0.5653,22.64191 3.1866,6.08194 3.0837,7.04788 -1.4166,13.29556 -8.5284,11.84 -13.9304,16.91152 -18.5533,17.41804 -9.358,1.0254 -14.7456,-0.13609 -14.7456,-3.17859 0,-3.54357 -6.8904,-5.90892 -17.0677,-5.85902 -5.8215,0.0284 -7.9366,1.8668 -14.3602,12.48064 -4.1432,6.84596 -6.9197,13.43975 -6.1699,14.65289 0.7498,1.21317 4.6517,1.57974 8.671,0.81463 l 7.3077,-1.39113 -5.1203,5.59479 c -2.8161,3.07714 -5.1203,6.81555 -5.1203,8.30759 0,1.49203 -5.9063,8.59444 -13.125,15.78314 -7.2188,7.18872 -14.9146,15.87396 -17.1018,19.30056 -2.1873,3.4266 -8.8257,8.5469 -14.7522,11.37845 -9.7234,4.64568 -10.7948,5.92585 -10.9748,13.11319 -0.5089,20.32821 -0.2729,19.87679 -18.0061,34.4313 -11.2233,9.21147 -17.0953,15.65031 -17.1483,18.80353 -0.044,2.63741 -1.5442,7.35542 -3.3329,10.48449 -4.3107,7.54071 -4.2232,13.5389 0.2697,18.50355 5.0898,5.62419 2.5295,14.12211 -7.1801,23.83173 -19.3434,19.3434 -0.1324,28.73037 23.3388,11.40401 9.6699,-7.13827 11.8248,-12.05947 7.2737,-16.61063 -1.3576,-1.35761 -2.1257,-4.834 -1.7068,-7.72533 0.5852,-4.03971 3.9232,-6.52932 14.4157,-10.75202 22.0213,-8.8624 45.7987,-6.65036 39.9948,3.72073 -1.3383,2.39127 -0.88,5.91475 1.3236,10.17591 2.6194,5.06546 2.8286,8.07299 0.9384,13.49509 -3.7476,10.7505 -3.0232,17.18204 2.1192,18.81414 2.5092,0.7964 4.5514,3.44317 4.5514,5.89887 0,2.6632 2.2989,5.3284 5.7172,6.628 13.2804,5.0492 12.5104,23.7659 -1.0897,26.4859 -9.3868,1.8774 -11.8496,5.6902 -11.0248,17.0681 0.5989,8.2606 1.9355,10.5881 8.673,15.1034 5.6439,3.7824 8.4824,7.7641 9.7409,13.6641 0.9768,4.5795 5.9058,13.224 10.9533,19.21 8.9063,10.5623 9.0963,11.1352 6.4364,19.4076 -1.5074,4.6882 -3.0819,9.8195 -3.4989,11.4028 -0.417,1.5833 -3.4651,3.9079 -6.7736,5.1658 -3.3084,1.2579 -8.6198,4.3357 -11.8029,6.8395 -3.4149,2.6861 -8.6696,4.3719 -12.8174,4.1119 -7.6063,-0.4768 -21.8218,5.8149 -21.8218,9.6582 0,3.6644 4.7185,11.8763 9.4113,16.3794 2.3336,2.2391 4.2428,6.4659 4.2428,9.393 0,6.6003 3.5492,9.6262 17.5046,14.9236 9.6008,3.6444 11.2652,5.2811 13.6116,13.3852 2.4316,8.3987 2.2775,9.3588 -1.7052,10.6228 -2.4081,0.7643 -4.3784,2.7138 -4.3784,4.3323 0,1.6184 -2.5809,6.7458 -5.7353,11.394 -5.2085,7.6752 -5.5951,9.8195 -4.2093,23.3461 1.2043,11.754 3.0134,16.8313 8.5799,24.0794 7.927,10.3215 6.8049,9.593 33.4437,21.7118 l 19.5626,8.8997 11.1592,-4.238 c 13.9905,-5.3134 13.3224,-5.3825 16.5556,1.7136 2.4568,5.3922 1.881,7.0599 -6.0902,17.6366 -11.3252,15.027 -14.0982,20.3615 -14.0982,27.1205 0,4.572 -2.969,7.0011 -17.6312,14.4253 -12.3482,6.2525 -18.5633,10.8724 -20.7423,15.4186 -1.8607,3.8823 -6.436,7.7972 -11.3839,9.7409 -4.646,1.825 -10.5267,6.6881 -13.414,11.0928 -3.5913,5.4787 -6.8567,7.8431 -10.8318,7.8431 -3.1298,0 -7.4726,2.1943 -9.6507,4.8762 -2.1781,2.682 -6.7764,8.1935 -10.2184,12.2478 -7.0585,8.3145 -7.9494,12.46 -2.6777,12.46 2.1944,0 3.2739,1.5416 2.7885,3.9825 -0.5235,2.6328 -2.4878,3.7446 -5.7963,3.2806 -5.8173,-0.8159 -25.6052,7.3743 -25.6052,10.5979 0,1.2371 -3.9444,1.6581 -9.081,0.9691 -5.3431,-0.7166 -10.3919,-0.1299 -12.2659,1.4252 -2.2955,1.9051 -6.909,2.0409 -16.5205,0.4864 -12.3188,-1.9924 -13.6355,-1.7809 -17.2675,2.7738 -3.1528,3.9537 -3.9419,4.1951 -3.9824,1.2183 -0.028,-2.0418 -3.3788,-6.2357 -7.4466,-9.3198 -7.6099,-5.7696 -13.6324,-7.7887 -31.195,-10.4583 -9.6158,-1.4617 -10.2428,-2.0148 -12.0219,-10.6056 -2.5846,-12.4804 -4.2942,-13.5958 -16.2313,-10.59 -7.4119,1.8663 -12.018,1.9001 -16.6465,0.1219 l -6.3991,-2.4582 11.3784,-3.7972 c 9.5862,-3.199 11.4919,-4.7829 12.0986,-10.0553 0.62,-5.3885 -0.091,-6.2581 -5.1203,-6.2581 -3.2122,10e-5 -5.8404,-0.9046 -5.8404,-2.0102 0,-1.1056 -1.7921,-2.5256 -3.9825,-3.1554 -2.1903,-0.6297 -5.9266,-1.9412 -8.3029,-2.9142 -3.9671,-1.6245 -4.2226,-0.901 -3.1242,8.8445 l 1.1964,10.6138 -9.9611,0 c -5.4786,0 -9.9611,1.0241 -9.9611,2.2757 0,1.2516 -0.9523,2.2757 -2.1162,2.2757 -1.1639,0 -3.9801,-5.8143 -6.2581,-12.9208 -4.9619,-15.4787 -10.9573,-19.7138 -8.6249,-6.0926 0.8262,4.825 3.3612,12.6874 5.6334,17.4719 3.3988,7.1567 3.5292,8.4681 0.7354,7.396 -1.8678,-0.7167 -5.8724,-1.3031 -8.8991,-1.3031 -3.8663,0 -5.5031,-1.2708 -5.5031,-4.2728 0,-6.9894 -4.9173,-9.1156 -24.9449,-10.7858 -19.7033,-1.6432 -21.3827,-2.498 -30.3468,-15.4465 -7.8738,-11.3734 -20.8874,-5.7875 -49.39,21.2001 -12.9513,12.2629 -22.2086,19.1237 -28.014,20.7617 -5.0515,1.4253 -13.4989,7.1004 -20.2383,13.5964 -6.3623,6.1324 -13.2132,11.47 -15.2242,11.8613 -2.67589,0.5208 -3.65639,3.3165 -3.65639,10.4259 0,5.849 -1.2617,10.4948 -3.1709,11.6759 -1.831,1.1326 -2.654,3.9386 -1.9475,6.6401 0.6729,2.5732 -0.1718,6.5182 -1.877,8.7668 -4.2771,5.6397 -3.9924,9.2474 1.2561,15.9198 3.5635,4.5302 3.9914,6.6752 2.054,10.2953 -3.2698,6.1097 1.39,23.0617 9.18929,33.4296 l 5.8428,7.767 -6.8112,-1.5541 c -22.73659,-5.1879 -25.47379,-4.7136 -51.52259,8.9277 -11.2011,5.8659 -18.9493,7.0399 -21.305,3.2284 z"
     id="path4940"
     inkscape:connector-curvature="0" />
  <path
     id="j"
     d="m 950.76313,1302.4841 48.2125,-29.1775 c 9.30127,16.4913 17.76247,30.4438 38.05747,30.4438 19.4538,0 31.7188,-7.6098 31.7188,-37.21 l 0,-201.3 59.2037,0 0,202.1375 c 0,61.32 -35.9437,89.2312 -88.385,89.2312 -47.36122,0 -74.85247,-24.5287 -88.80747,-54.13"
     inkscape:connector-curvature="0" />
  <path
     id="s"
     d="m 1160.1131,1296.1404 48.2063,-27.9113 c 12.69,20.7238 29.1825,35.9475 58.3612,35.9475 24.5313,0 40.1738,-12.2647 40.1738,-29.1812 0,-20.2988 -16.0688,-27.4888 -43.135,-39.3263 l -14.7975,-6.3475 c -42.715,-18.1812 -71.05,-41.0175 -71.05,-89.2275 0,-44.4037 33.8312,-78.2375 86.695,-78.2375 37.6375,0 64.7025,13.1113 84.1537,47.3663 l -46.0962,29.6012 c -10.15,-18.1825 -21.1425,-25.3712 -38.0575,-25.3712 -17.3388,0 -28.335,10.995 -28.335,25.3712 0,17.7625 10.9962,24.9525 36.3675,35.9488 l 14.8,6.3425 c 50.325,21.5687 78.66,43.5575 78.66,93.0337 0,53.2875 -41.8663,82.465 -98.11,82.465 -54.9763,0 -90.5,-26.2175 -107.8363,-60.4737"
     inkscape:connector-curvature="0" />
</svg>
