<?xml version="1.0" standalone="no"?>
<!-- Generator: Adobe Fireworks 10, Export SVG Extension by Aaron Beall (http://fireworks.abeall.com) . Version: 0.6.1  -->
<!DOCTYPE svg PUBLIC "-//W3C//DTD SVG 1.1//EN" "http://www.w3.org/Graphics/SVG/1.1/DTD/svg11.dtd">
<svg id="logojs.fw-page%201" viewBox="0 0 700 700" style="background-color:#ffffff00" version="1.1"
	xmlns="http://www.w3.org/2000/svg" xmlns:xlink="http://www.w3.org/1999/xlink" xml:space="preserve"
	x="0px" y="0px" width="700px" height="700px"
>
	<defs>
		<filter id="filter1" x="-100%" y="-100%" width="300%" height="300%">
			<!-- Ombre portée -->
			<feOffset result="out" in="SourceGraphic" dx="0" dy="1"/>
			<feColorMatrix result="out" in="out" type="matrix" values="0 0 0 1 0  0 0 0 1 0  0 0 0 1 0  0 0 0 0.502 0"/>
			<feGaussianBlur result="out" in="out" stdDeviation="0"/>
			<feBlend in="SourceGraphic" in2="out" mode="normal" result="Ombre_portée1"/>
		</filter>
	</defs>
	<g id="Calque%203">
		<g>
			<path d="M 580.6885 397.0525 C 580.6777 405.3363 580.4427 419.3833 575.5342 425.8954 C 572.7601 429.5757 563.5648 434.8857 556.3853 439.0178 C 518.9731 460.5497 411.3306 522.5018 373.9185 544.0337 C 366.739 548.1657 354.4565 554.985 346.3623 553.9907 C 341.7877 553.4286 332.5905 548.1212 325.4218 543.9704 C 288.0661 522.3408 180.5857 460.1078 143.23 438.4782 C 136.0614 434.3274 124.0135 427.1013 120.8277 419.5944 C 119.0273 415.3519 119.0258 404.7334 119.0366 396.4496 C 119.093 353.2877 119.2552 229.1114 119.3115 185.9484 C 119.3224 177.6641 119.5573 163.6167 124.4659 157.1046 C 127.2399 153.4243 136.4353 148.1143 143.6148 143.9822 C 181.0269 122.4503 288.6695 60.4982 326.0815 38.9663 C 333.261 34.8342 345.5436 28.015 353.6378 29.0094 C 358.2124 29.5714 367.4096 34.8789 374.5783 39.0297 C 411.934 60.6593 519.4143 122.8923 556.77 144.5218 C 563.9387 148.6726 575.9865 155.8988 579.1723 163.4056 C 580.9727 167.6481 580.9742 178.267 580.9634 186.5513 C 580.907 229.7143 580.7449 353.8906 580.6885 397.0525 Z" fill="#f0db4e"/>
			<path d="M 580.6885 397.0525 C 580.6777 405.3363 580.4427 419.3833 575.5342 425.8954 C 572.7601 429.5757 563.5648 434.8857 556.3853 439.0178 C 518.9731 460.5497 411.3306 522.5018 373.9185 544.0337 C 366.739 548.1657 354.4565 554.985 346.3623 553.9907 C 341.7877 553.4286 332.5905 548.1212 325.4218 543.9704 C 288.0661 522.3408 180.5857 460.1078 143.23 438.4782 C 136.0614 434.3274 124.0135 427.1013 120.8277 419.5944 C 119.0273 415.3519 119.0258 404.7334 119.0366 396.4496 C 119.093 353.2877 119.2552 229.1114 119.3115 185.9484 C 119.3224 177.6641 119.5573 163.6167 124.4659 157.1046 C 127.2399 153.4243 136.4353 148.1143 143.6148 143.9822 C 181.0269 122.4503 288.6695 60.4982 326.0815 38.9663 C 333.261 34.8342 345.5436 28.015 353.6378 29.0094 C 358.2124 29.5714 367.4096 34.8789 374.5783 39.0297 C 411.934 60.6593 519.4143 122.8923 556.77 144.5218 C 563.9387 148.6726 575.9865 155.8988 579.1723 163.4056 C 580.9727 167.6481 580.9742 178.267 580.9634 186.5513 C 580.907 229.7143 580.7449 353.8906 580.6885 397.0525 Z" fill="#f0db4e"/>
		</g>
		<g visibility="hidden">
			<rect x="120" y="60" width="154" height="550" fill="#0c1e3a"/>
			<rect x="274" y="60" width="154" height="550" fill="#ffffff"/>
			<rect x="428" y="60" width="154" height="550" fill="#b30000"/>
		</g>
		<g visibility="hidden">
			<path d="M 581.6885 456.0525 C 581.6777 464.3363 581.4427 478.3833 576.5342 484.8954 C 573.7601 488.5757 564.5648 493.8857 557.3853 498.0178 C 519.9731 519.5497 412.3306 581.5018 374.9185 603.0337 C 367.739 607.1657 355.4565 613.985 347.3623 612.9907 C 342.7877 612.4286 333.5905 607.1212 326.4218 602.9704 C 289.0661 581.3408 181.5857 519.1078 144.23 497.4782 C 137.0614 493.3274 125.0135 486.1013 121.8277 478.5944 C 120.0273 474.3519 120.0258 463.7334 120.0366 455.4496 C 120.093 412.2877 120.2552 318.1114 120.3115 274.9484 C 120.3224 266.6641 120.5573 252.6167 125.4659 246.1046 C 128.2399 242.4243 137.4353 237.1143 144.6148 232.9822 C 182.0269 211.4503 289.6695 149.4982 327.0815 127.9663 C 334.261 123.8342 346.5436 117.015 354.6378 118.0094 C 359.2124 118.5714 368.4096 123.8789 375.5783 128.0297 C 412.934 149.6593 520.4143 211.8923 557.77 233.5218 C 564.9387 237.6726 576.9865 244.8988 580.1723 252.4056 C 581.9727 256.6481 581.9742 267.267 581.9634 275.5513 C 581.907 318.7143 581.7449 412.8906 581.6885 456.0525 Z" fill="#eeeb34"/>
			<path d="M 581.6885 456.0525 C 581.6777 464.3363 581.4427 478.3833 576.5342 484.8954 C 573.7601 488.5757 564.5648 493.8857 557.3853 498.0178 C 519.9731 519.5497 412.3306 581.5018 374.9185 603.0337 C 367.739 607.1657 355.4565 613.985 347.3623 612.9907 C 342.7877 612.4286 333.5905 607.1212 326.4218 602.9704 C 289.0661 581.3408 181.5857 519.1078 144.23 497.4782 C 137.0614 493.3274 125.0135 486.1013 121.8277 478.5944 C 120.0273 474.3519 120.0258 463.7334 120.0366 455.4496 C 120.093 412.2877 120.2552 318.1114 120.3115 274.9484 C 120.3224 266.6641 120.5573 252.6167 125.4659 246.1046 C 128.2399 242.4243 137.4353 237.1143 144.6148 232.9822 C 182.0269 211.4503 289.6695 149.4982 327.0815 127.9663 C 334.261 123.8342 346.5436 117.015 354.6378 118.0094 C 359.2124 118.5714 368.4096 123.8789 375.5783 128.0297 C 412.934 149.6593 520.4143 211.8923 557.77 233.5218 C 564.9387 237.6726 576.9865 244.8988 580.1723 252.4056 C 581.9727 256.6481 581.9742 267.267 581.9634 275.5513 C 581.907 318.7143 581.7449 412.8906 581.6885 456.0525 Z" fill="#eeeb34"/>
		</g>
		<path d="M 467 660.2617 L 478.6095 653.2336 C 480.8492 657.2061 482.8867 660.5668 487.7737 660.5668 C 492.4582 660.5668 495.4114 658.7339 495.4114 651.6037 L 495.4114 603.1154 L 509.6677 603.1154 L 509.6677 651.8066 C 509.6677 666.5773 501.0125 673.3005 488.3848 673.3005 C 476.9801 673.3005 470.3605 667.3921 467 660.2617 L 467 660.2617 Z" fill="#2d2525"/>
		<path d="M 517.4081 659.4334 L 529.0162 652.7102 C 532.0721 657.7018 536.0433 661.369 543.0695 661.369 C 548.9765 661.369 552.7434 658.4145 552.7434 654.34 C 552.7434 649.4505 548.8739 647.7186 542.3566 644.8671 L 538.7931 643.3383 C 528.5074 638.9587 521.6844 633.4581 521.6844 621.8453 C 521.6844 611.1496 529.8311 603 542.5607 603 C 551.6238 603 558.1409 606.1581 562.8248 614.4092 L 551.7249 621.5396 C 549.2808 617.1599 546.6338 615.4281 542.5607 615.4281 C 538.3854 615.4281 535.7376 618.0767 535.7376 621.5396 C 535.7376 625.8181 538.3854 627.5499 544.4948 630.1986 L 548.0585 631.7264 C 560.177 636.9218 567 642.2183 567 654.1359 C 567 666.9716 556.9186 674 543.3751 674 C 530.1368 674 521.5828 667.6846 517.4081 659.4334 L 517.4081 659.4334 Z" fill="#2d2525"/>
		<g>
			<path d="M 155.9375 642.9375 L 186.2713 642.9375 L 186.2713 631.0625 L 155.9375 631.0625 L 155.9375 615.0331 L 190.591 615.0331 L 190.591 603.1581 L 142.0625 603.1581 L 142.0625 671.9375 L 155.9375 671.9375 L 155.9375 642.9375 L 155.9375 642.9375 Z" fill="#2c2525"/>
			<path d="M 202.0625 671.9375 L 214.9375 671.9375 L 214.9375 645.1953 C 214.9375 639.4993 216.8574 632.9375 227.3206 632.9375 C 228.5685 632.9375 230.0084 632.9375 231.1603 633.1275 L 231.1603 621.2289 C 230.2964 621.1452 229.4324 621.0625 228.5685 621.0625 C 220.4091 621.0625 217.3373 625.4105 214.5697 629.9268 L 214.3858 629.9268 L 214.3858 622.0625 L 202.0625 622.0625 L 202.0625 671.9375 L 202.0625 671.9375 Z" fill="#2c2525"/>
			<path d="M 283.9375 635.647 C 283.9375 623.2079 271.0625 621 263.5137 621 C 252.5415 621 242.0973 623.2079 240.6259 638.6147 L 253.1454 638.6147 C 253.5481 635.7397 254.756 631.7512 261.8024 631.7512 C 265.4262 631.7512 271.0625 632.03 271.0625 637.5018 C 271.0625 640.2841 268.3455 641.1188 266.1309 641.397 L 253.4474 643.1591 C 245.1322 644.3648 239.0625 649.2802 239.0625 658.9254 C 239.0625 668.6846 246.6036 673.0441 254.1521 673.0441 C 263.715 673.0441 268.2448 668.7815 271.4384 665.5845 C 271.7203 668.9417 271.9083 669.6836 272.6601 671.9296 L 286.9133 671.9296 L 286.9133 670.0546 C 285.2814 669.4981 283.9375 668.1997 283.9375 662.3569 L 283.9375 635.647 L 283.9375 635.647 ZM 271.0625 654.2883 C 271.0625 659.7238 264.7216 663.3566 258.4805 663.3566 C 255.7627 663.3566 251.9375 661.9943 251.9375 657.5441 C 251.9375 652.2765 256.266 651.0958 261.5004 650.2784 C 267.3388 649.4611 269.6541 648.6437 271.0625 647.6447 L 271.0625 654.2883 L 271.0625 654.2883 Z" fill="#2c2525"/>
			<path d="M 343.9375 637.6846 C 343.9375 626.8478 336.4884 621.2261 326.5575 621.2261 C 316.4445 621.2261 312.4394 626.7556 310.5697 629.7048 L 310.3857 629.7048 L 310.3857 622.0541 L 298.0625 622.0541 L 298.0625 671.9375 L 310.9375 671.9375 L 310.9375 643.4276 C 310.9375 636.0092 315.7437 632.1011 321.9516 632.1011 C 330.863 632.1011 331.0625 638.243 331.0625 641.8732 L 331.0625 671.9375 L 343.9375 671.9375 L 343.9375 637.6846 L 343.9375 637.6846 Z" fill="#2c2525"/>
			<path d="M 389.9631 653.4243 C 389.9631 655.7024 387.5955 661.8989 380.5915 661.8989 C 370.1348 661.8989 369.9375 651.4195 369.9375 646.1342 C 369.9375 640.1199 372.2064 632.1011 380.8875 632.1011 L 381.578 632.1011 C 387.4969 632.1011 389.4698 636.8394 390.0625 639.9377 L 402.9375 639.9377 C 401.7586 624.728 389.1739 621.2261 380.8875 621.2261 C 363.7687 621.2261 357.0625 632.5565 357.0625 648.2301 C 357.0625 658.4362 361.1757 672.7739 379.9996 672.7739 C 398.4946 672.7739 402.3933 658.4362 402.8466 653.4243 L 389.9631 653.4243 L 389.9631 653.4243 Z" fill="#2c2525"/>
			<path d="M 445.4786 656.7245 C 444.4077 660.3439 440.5137 662.2488 436.717 662.2488 C 425.7163 662.2488 424.9375 653.6767 424.5808 649.8677 L 458.9375 649.8677 L 458.9375 647.4679 C 458.9375 625.9548 445.9653 621.2261 435.7435 621.2261 C 414.0297 621.2261 412.0625 639.3582 412.0625 645.1641 C 412.0625 666.0885 422.3454 673 436.717 673 C 445.5759 673 455.0936 668.9683 458.402 656.7245 L 445.4786 656.7245 L 445.4786 656.7245 ZM 424.9375 641.1323 C 425.7163 635.4873 429.1236 632.1011 435.5488 632.1011 C 439.9296 632.1011 445.2839 634.197 446.0625 641.1323 L 424.9375 641.1323 L 424.9375 641.1323 Z" fill="#2c2525"/>
		</g>
		<path opacity="0.2" visibility="hidden" d="M 546.0852 381.2196 C 546.076 388.2609 545.8763 400.2008 541.704 405.7361 C 539.3461 408.8643 531.53 413.3779 525.4275 416.8901 C 493.6272 435.1923 402.131 487.8515 370.3308 506.1537 C 364.2282 509.6659 353.788 515.4622 346.908 514.6171 C 343.0195 514.1393 335.2019 509.628 329.1085 506.0999 C 297.3562 487.7147 205.9978 434.8166 174.2455 416.4315 C 168.1522 412.9033 157.9114 406.7611 155.2035 400.3802 C 153.6732 396.7741 153.6719 387.7484 153.6811 380.7072 C 153.729 344.0196 153.8669 238.4697 153.9148 201.7811 C 153.924 194.7395 154.1237 182.7992 158.296 177.2639 C 160.6539 174.1357 168.47 169.6222 174.5726 166.1099 C 206.3729 147.8077 297.8691 95.1485 329.6693 76.8463 C 335.7719 73.3341 346.2121 67.5378 353.0921 68.383 C 356.9806 68.8606 364.7982 73.372 370.8916 76.9002 C 402.6439 95.2854 494.0022 148.1834 525.7545 166.5685 C 531.8478 170.0967 542.0886 176.239 544.7964 182.6198 C 546.3268 186.2259 546.3281 195.2519 546.3189 202.2936 C 546.271 238.9821 546.1331 344.532 546.0852 381.2196 Z" fill="#bbbbbb"/>
		<g filter="url(#filter1)">
			<path d="M 260 392.72 L 293.2031 372.6256 C 299.6086 383.9835 305.4358 393.5927 319.4129 393.5927 C 332.8104 393.5927 341.2567 388.3517 341.2567 367.9656 L 341.2567 229.33 L 382.0297 229.33 L 382.0297 368.5457 C 382.0297 410.7774 357.2758 430 321.1607 430 C 288.5432 430 269.6111 413.107 260 392.72 L 260 392.72 Z" fill="#2d2525"/>
			<path d="M 404.1673 388.3517 L 437.3665 369.1291 C 446.1063 383.4008 457.4638 393.886 477.5586 393.886 C 494.4529 393.886 505.2262 385.4387 505.2262 373.7891 C 505.2262 359.8091 494.1595 354.8574 475.52 346.7043 L 465.3284 342.3335 C 435.9113 329.8113 416.3975 314.0843 416.3975 280.8817 C 416.3975 250.3008 439.6969 227 476.1034 227 C 502.024 227 520.6628 236.0295 534.059 259.6208 L 502.3133 280.0074 C 495.323 267.4852 487.7527 262.5339 476.1034 262.5339 C 464.1624 262.5339 456.5895 270.1065 456.5895 280.0074 C 456.5895 292.2404 464.1624 297.1921 481.6351 304.7652 L 491.8275 309.1334 C 526.4861 323.9878 546 339.1313 546 373.2057 C 546 409.9048 517.1672 430 478.4329 430 C 440.5712 430 416.1066 411.9435 404.1673 388.3517 L 404.1673 388.3517 Z" fill="#2d2525"/>
		</g>
	</g>
	<g id="Calque%202">
		<rect visibility="hidden" x="150" y="150" width="300" height="300" fill="#ffff00"/>
		<text visibility="hidden" x="235" y="479" width="224" fill="#1f1f2e" style="font-weight: bold; font-size: 180px; font-family: Helvetica LT Std; color: #1f1f2e; text-align: left; "><tspan><![CDATA[JS]]></tspan></text>
	</g>
</svg>